mtllib scope.mtl
o Scope.001_Cube.002
v 0.68750 0.06250 0.06250
v 0.68750 0.50000 0.06250
v 0.87500 0.50000 0.06250
v 0.87500 0.06250 0.06250
v 0.75000 0.25000 0.06250
v 0.81250 0.25000 0.06250
v 0.75000 0.31250 0.06250
v 0.81250 0.31250 0.06250
v 0.75000 0.25000 0.00000
v 0.81250 0.25000 0.00000
v 0.75000 0.31250 0.00000
v 0.81250 0.31250 0.00000
vt 0.875000 0.437500
vt 0.828125 0.437500
vt 0.828125 0.218750
vt 0.875000 0.218750
vt 0.765625 0.125000
vt 0.750000 0.125000
vt 0.750000 0.156250
vt 0.765625 0.156250
vt 0.765625 0.125000
vt 0.781250 0.125000
vt 0.781250 0.156250
vt 0.765625 0.125000
vt 0.781250 0.093750
vt 0.765625 0.093750
vt 0.765625 0.093750
vt 0.750000 0.093750
vt 0.750000 0.125000
vt 0.796875 0.156250
vt 0.796875 0.125000
vt 0.781250 0.125000
vt 0.781250 0.156250
vn 0.0000 0.0000 -1.0000
vn 0.0000 1.0000 0.0000
vn 0.0000 -1.0000 0.0000
vn -1.0000 0.0000 0.0000
vn 1.0000 0.0000 0.0000
usemtl Scope
f 2/1/1 3/2/1 4/3/1 1/4/1
f 7/5/2 8/6/2 12/7/2 11/8/2
f 11/8/1 12/9/1 10/10/1 9/11/1
f 9/12/3 10/10/3 6/13/3 5/14/3
f 7/5/4 11/15/4 9/16/4 5/17/4
f 12/18/5 8/19/5 6/20/5 10/21/5
