# Blender v2.92.0 OBJ File: 'scope.blend'
# www.blender.org
mtllib scope.mtl
o Scope_Cube.001
v 0.93750 0.56250 0.09375
v 0.93750 0.93750 0.09375
v 0.43750 0.56250 0.09375
v 0.43750 0.93750 0.09375
v 0.87500 0.06250 0.56250
v 0.87500 0.50000 0.56250
v 0.12500 0.06250 0.56250
v 0.12500 0.50000 0.56250
v 1.00000 0.00000 1.00000
v 1.00000 1.00000 1.00000
v 0.00000 0.00000 1.00000
v 0.00000 1.00000 1.00000
v 1.00000 0.00000 0.06250
v 1.00000 1.00000 0.06250
v 0.00000 0.00000 0.06250
v 0.00000 1.00000 0.06250
v 0.12500 0.06250 0.06250
v 0.12500 0.50000 0.06250
v 0.87500 0.06250 0.06250
v 0.87500 0.50000 0.06250
v 0.43750 0.56250 0.06250
v 0.43750 0.93750 0.06250
v 0.93750 0.56250 0.06250
v 0.93750 0.93750 0.06250
v 0.12500 0.83081 0.06250
v 0.16919 0.87500 0.06250
v 0.08081 0.87500 0.06250
v 0.12500 0.91919 0.06250
v 0.12500 0.83081 0.00000
v 0.16919 0.87500 0.00000
v 0.08081 0.87500 0.00000
v 0.12500 0.91919 0.00000
v 0.12500 0.66919 0.00000
v 0.08081 0.62500 0.00000
v 0.16919 0.62500 0.00000
v 0.12500 0.58081 0.00000
v 0.12500 0.66919 0.06250
v 0.08081 0.62500 0.06250
v 0.16919 0.62500 0.06250
v 0.12500 0.58081 0.06250
v 1.00000 0.50000 0.06250
v 1.00000 0.56250 0.06250
v 1.00000 0.93750 0.06250
v 1.00000 0.06250 0.06250
v 0.00000 0.06250 0.06250
v 0.00000 0.50000 0.06250
v 0.00000 0.56250 0.06250
v 0.00000 0.93750 0.06250
vt 0.718750 0.000000
vt 0.718750 0.500000
vt 0.468750 0.500000
vt 0.468750 0.000000
vt 0.234375 0.500000
vt 0.000000 0.500000
vt 0.000000 0.000000
vt 0.234375 0.000000
vt 0.234375 0.500000
vt 0.234375 1.000000
vt 0.000000 1.000000
vt 0.000000 0.500000
vt 0.234375 0.500000
vt 0.468750 0.500000
vt 0.468750 1.000000
vt 0.468750 0.500000
vt 0.234375 0.000000
vt 0.468750 0.000000
vt 0.500000 0.750000
vt 0.500000 0.531250
vt 0.687500 0.531250
vt 0.687500 0.750000
vt 0.828125 0.750000
vt 0.718750 0.750000
vt 0.718750 0.500000
vt 0.828125 0.500000
vt 0.828125 0.500000
vt 0.718750 0.500000
vt 0.718750 0.750000
vt 0.828125 0.750000
vt 0.906250 0.750000
vt 0.906250 1.000000
vt 0.718750 1.000000
vt 0.718750 0.750000
vt 0.718750 1.000000
vt 0.906250 1.000000
vt 0.906250 0.750000
vt 0.484375 0.968750
vt 0.484375 0.781250
vt 0.609375 0.781250
vt 0.609375 0.968750
vt 0.734375 0.187500
vt 0.734375 0.000000
vt 0.750000 0.000000
vt 0.750000 0.187500
vt 0.750000 0.250000
vt 0.750000 0.437500
vt 0.734375 0.437500
vt 0.734375 0.250000
vt 0.718750 0.000000
vt 0.734375 0.250000
vt 0.718750 0.250000
vt 0.718750 0.250000
vt 0.718750 0.500000
vt 0.734375 0.500000
vt 0.734375 0.250000
vt 0.765625 0.125000
vt 0.750000 0.125000
vt 0.750000 0.156250
vt 0.765625 0.156250
vt 0.765625 0.125000
vt 0.781250 0.125000
vt 0.781250 0.156250
vt 0.765625 0.125000
vt 0.781250 0.093750
vt 0.765625 0.093750
vt 0.765625 0.093750
vt 0.750000 0.093750
vt 0.750000 0.125000
vt 0.796875 0.156250
vt 0.796875 0.125000
vt 0.781250 0.125000
vt 0.781250 0.156250
vt 0.765625 0.156250
vt 0.765625 0.125000
vt 0.781250 0.125000
vt 0.781250 0.156250
vt 0.765625 0.125000
vt 0.750000 0.125000
vt 0.750000 0.156250
vt 0.765625 0.093750
vt 0.750000 0.093750
vt 0.750000 0.125000
vt 0.796875 0.156250
vt 0.796875 0.125000
vt 0.781250 0.125000
vt 0.781250 0.156250
vt 0.765625 0.125000
vt 0.781250 0.093750
vt 0.765625 0.093750
vt 0.718750 0.500000
vt 0.718750 0.531250
vt 0.468750 0.531250
vt 0.468750 0.500000
vt 0.500000 0.750000
vt 0.468750 0.750000
vt 0.500000 0.531250
vt 0.484375 0.968750
vt 0.468750 0.968750
vt 0.468750 0.781250
vt 0.484375 0.781250
vt 0.718750 0.781250
vt 0.718750 0.750000
vt 0.687500 0.750000
vt 0.687500 0.531250
vt 0.718750 0.968750
vt 0.609375 0.968750
vt 0.609375 0.781250
vt 0.718750 1.000000
vt 0.468750 1.000000
vn 0.0000 0.0000 1.0000
vn -1.0000 0.0000 0.0000
vn 1.0000 0.0000 0.0000
vn 0.0000 -1.0000 0.0000
vn 0.0000 1.0000 0.0000
vn -0.0000 0.0000 -1.0000
vn -0.7071 0.7071 0.0000
vn 0.7071 -0.7071 0.0000
vn -0.7071 -0.7071 0.0000
vn 0.7071 0.7071 0.0000
usemtl Scope
f 9/1/1 10/2/1 12/3/1 11/4/1
f 12/5/2 16/6/2 15/7/2 11/8/2
f 10/9/3 9/10/3 13/11/3 14/12/3
f 11/13/4 15/14/4 13/15/4 9/10/4
f 16/16/5 12/5/5 10/17/5 14/18/5
f 6/19/6 5/20/6 7/21/6 8/22/6
f 8/23/3 7/24/3 17/25/3 18/26/3
f 5/27/2 6/28/2 20/29/2 19/30/2
f 17/31/5 7/32/5 5/33/5 19/34/5
f 20/29/4 6/35/4 8/36/4 18/37/4
f 2/38/6 1/39/6 3/40/6 4/41/6
f 4/42/3 3/43/3 21/44/3 22/45/3
f 1/46/2 2/47/2 24/48/2 23/49/2
f 21/50/5 3/43/5 1/51/5 23/52/5
f 2/53/4 4/54/4 22/55/4 24/56/4
f 27/57/7 28/58/7 32/59/7 31/60/7
f 31/60/6 32/61/6 30/62/6 29/63/6
f 29/64/8 30/62/8 26/65/8 25/66/8
f 27/57/9 31/67/9 29/68/9 25/69/9
f 32/70/10 28/71/10 26/72/10 30/73/10
f 34/74/6 33/75/6 35/76/6 36/77/6
f 38/78/7 37/79/7 33/80/7 34/74/7
f 38/78/9 34/81/9 36/82/9 40/83/9
f 33/84/10 37/85/10 39/86/10 35/87/10
f 36/88/8 35/76/8 39/89/8 40/90/8
f 15/91/6 45/92/6 44/93/6 13/94/6
f 20/95/6 41/96/6 44/93/6 19/97/6
f 24/98/6 43/99/6 42/100/6 23/101/6
f 47/102/6 42/100/6 41/96/6 46/103/6
f 46/103/6 18/104/6 17/105/6 45/92/6
f 48/106/6 22/107/6 21/108/6 47/102/6
f 16/109/6 14/110/6 43/99/6 48/106/6
