mtllib chassis.mtl
o Case
v 0.6875 0.375 0.625
v 0.6875 0.625 0.625
v 0.6875 0.375 0.375
v 0.6875 0.625 0.375
v 0 0.0 1.0
v 0 0.0 0.0
v 1.0 0 1.0
v 1.0 0 0.0
v 0 1.9375 1.0
v 0 2.0 1.0
v 0.0625 1.9375 0.9375
v 0 2.0 0.0
v 0 1.9375 0.0
v 1.0 2.0 1.0 
v 0.0625 1.9375 0.0
v 1.0 2.0 0.0 
v 0.9375 1.9375 0.9375 
v 1.0 1.9375 1.0 
v 0.9375 1.9375 0.0 
v 1.0 1.9375 0.0 
v 0 0.625 1.0
v 0 0.6875 0.0
v 0.9375 0.6875 0.9375
v 1.0 0.625 1.0
v 0.9375 0.6875 0.0
v 1.0 0.6875 0.0
v 0.0625 0.6875 0.0
v 0.0625 0.6875 0.9375
v 1.0 0.375 0.625
v 1.0 0.375 0.375
v 1.0 0.625 0.375
v 1.0 0.625 0.625
vt 0.2109 0.0234
vt 0.2266 0.0234
vt 0.2266 0.0391
vt 0.2109 0.0391
vt 0.2266 0.0508
vt 0.2266 0.0312
vt 0.2422 0.0312
vt 0.2422 0.0508
vt 0.2422 0.0312
vt 0.2266 0.0312
vt 0.2266 0.0117
vt 0.2422 0.0117
vt 0.0625 0.0000
vt 0.0625 0.0430
vt 0.0000 0.0430
vt 0.0000 0.0000
vt 0.1250 0.2500
vt 0.0625 0.2500
vt 0.0625 0.1875
vt 0.1250 0.1875
vt 0.1875 0.0000
vt 0.2109 0.0234
vt 0.2109 0.0391
vt 0.1875 0.1250
vt 0.0625 0.1875
vt 0.1250 0.1875
vt 0.1250 0.2500
vt 0.0625 0.2500
vt 0.0586 0.0430
vt 0.0586 0.1211
vt 0.0039 0.1211
vt 0.0039 0.0430
vt 0.0781 0.1289
vt 0.0781 0.1875
vt 0.0000 0.1875
vt 0.0000 0.1289
vt 0.0781 0.1289
vt 0.0781 0.1875
vt 0.0000 0.1875
vt 0.0000 0.1289
vt 0.0039 0.1211
vt 0.0000 0.1211
vt 0.0039 0.0430
vt 0.0586 0.0430
vt 0.0625 0.1211
vt 0.0586 0.1211
vt 0.0000 0.1250
vt 0.0625 0.1250
vt 0.0039 0.2500
vt 0.0039 0.1914
vt 0.0586 0.1914
vt 0.0586 0.2500
vt 0.1473 0.0625
vt 0.1473 1.0000
vt 0.1473 0.9375
vt 0.1250 0.0000
vt 0.1250 0.1250
vt 0.0586 0.2500
vt 0.0039 0.2500
vt 0.0039 0.1914
vt 0.0586 0.1914
vt 0.2500 0.0000
vt 0.2266 0.0234
vt 0.2266 0.0312
vt 0.2266 0.0117
vt 0.2422 0.0117
vt 0.2266 0.0508
vt 0.2422 0.0312
vt 0.2422 0.0508
vt 0.2500 0.1250
vt 0.2266 0.0391
vn 1.0000 -0.0000 0.0000
vn 0.0000 0.0000 1.0000
vn 0.0000 1.0000 0.0000
vn 0.0000 0.0000 -1.0000
vn 0.0000 -1.0000 0.0000
vn -1.0000 0.0000 0.0000
usemtl chassis
f 1/1/1 3/2/1 4/3/1 2/4/1
f 3/5/2 30/6/2 31/7/2 4/8/2
f 3/9/3 1/10/3 29/11/3 30/12/3
f 6/13/4 22/14/4 26/15/4 8/16/4
f 6/17/5 8/18/5 7/19/5 5/20/5
f 7/21/1 29/22/1 32/23/1 14/24/1
f 16/25/3 12/26/3 10/27/3 14/28/3
f 28/29/4 11/30/4 17/31/4 23/32/4
f 15/33/1 11/34/1 28/35/1 27/36/1
f 17/37/6 19/38/6 25/39/6 23/40/6
f 19/41/4 20/42/4 26/15/4 25/43/4
f 27/44/4 22/14/4 13/45/4 15/46/4
f 16/47/4 20/42/4 13/45/4 12/48/4
f 19/49/5 17/50/5 11/51/5 15/52/5
f 19/53/3 13/54/3 15/55/3 15/55/3
f 5/56/2 7/21/2 14/24/2 10/57/2
f 6/13/6 5/56/6 10/57/6 12/48/6
f 28/58/3 23/59/3 25/60/3 27/61/3
f 7/21/1 8/62/1 30/63/1 29/22/1
f 32/64/5 2/65/5 4/66/5 31/7/5
f 29/67/4 1/10/4 2/68/4 32/69/4
f 30/63/1 8/62/1 16/70/1 31/71/1
f 14/24/1 32/23/1 31/71/1 16/70/1
