mtllib chassis.mtl
o Box_Cube.024
v 0.68750 0.37500 0.62500
v 0.68750 0.62500 0.62500
v 0.68750 0.37500 0.37500
v 0.68750 0.62500 0.37500
v 0.00000 0.00000 1.00000
v 0.00000 0.00000 0.00000
v 1.00000 0.00000 1.00000
v 1.00000 0.00000 0.00000
v -0.00000 2.00000 1.00000
v 0.06250 1.93750 0.93750
v -0.00000 2.00000 0.00000
v -0.00000 1.93750 0.00000
v 1.00000 2.00000 1.00000
v 0.06250 1.93750 0.00000
v 1.00000 2.00000 0.00000
v 0.93750 1.93750 0.93750
v 0.93750 1.93750 0.00000
v 1.00000 1.93750 0.00000
v -0.00000 0.68750 0.00000
v 0.93750 0.68750 0.93750
v 0.93750 0.68750 0.00000
v 1.00000 0.68750 0.00000
v 0.06250 0.68750 0.00000
v 0.06250 0.68750 0.93750
v 1.00000 0.37500 0.62500
v 1.00000 0.37500 0.37500
v 1.00000 0.62500 0.37500
v 1.00000 0.62500 0.62500
vt 0.8438 0.0938
vt 0.9062 0.0938
vt 0.9062 0.1562
vt 0.8438 0.1562
vt 0.9062 0.2031
vt 0.9062 0.1250
vt 0.9688 0.1250
vt 0.9688 0.2031
vt 0.9688 0.1250
vt 0.9062 0.1250
vt 0.9062 0.0469
vt 0.9688 0.0469
vt 0.2500 0.0000
vt 0.2500 0.1719
vt 0.0000 0.1719
vt 0.0000 0.0000
vt 0.5000 1.0000
vt 0.2500 1.0000
vt 0.2500 0.7500
vt 0.5000 0.7500
vt 0.7500 0.0000
vt 0.8438 0.0938
vt 0.8438 0.1562
vt 0.7500 0.5000
vt 0.2500 0.7500
vt 0.5000 0.7500
vt 0.5000 1.0000
vt 0.2500 1.0000
vt 0.2344 0.1719
vt 0.2344 0.4844
vt 0.0156 0.4844
vt 0.0156 0.1719
vt 0.3125 0.5156
vt 0.3125 0.7500
vt 0.0000 0.7500
vt 0.0000 0.5156
vt 0.3125 0.5156
vt 0.3125 0.7500
vt 0.0000 0.7500
vt 0.0000 0.5156
vt 0.0156 0.4844
vt 0.0000 0.4844
vt 0.0156 0.1719
vt 0.2344 0.1719
vt 0.2500 0.4844
vt 0.2344 0.4844
vt 0.0000 0.5000
vt 0.2500 0.5000
vt 0.0156 1.0000
vt 0.0156 0.7656
vt 0.2344 0.7656
vt 0.2344 1.0000
vt 0.5938 0.2500
vt 0.5938 4.0000
vt 0.5938 3.7500
vt 0.5000 0.0000
vt 0.5000 0.5000
vt 0.2344 1.0000
vt 0.0156 1.0000
vt 0.0156 0.7656
vt 0.2344 0.7656
vt 0.9062 0.1250
vt 0.9062 0.0469
vt 0.9688 0.0469
vt 0.9062 0.2031
vt 0.9688 0.1250
vt 0.9688 0.2031
vt 0.9062 0.1562
vt 1.0000 0.5000
vt 1.0000 0.0000
vt 0.9062 0.0938
vn 1.0000 -0.0000 0.0000
vn 0.0000 0.0000 1.0000
vn 0.0000 1.0000 0.0000
vn 0.0000 0.0000 -1.0000
vn 0.0000 -1.0000 0.0000
vn -1.0000 0.0000 0.0000
usemtl chassis
f 1/1/1 3/2/1 4/3/1 2/4/1
f 3/5/2 26/6/2 27/7/2 4/8/2
f 3/9/3 1/10/3 25/11/3 26/12/3
f 6/13/4 19/14/4 22/15/4 8/16/4
f 6/17/5 8/18/5 7/19/5 5/20/5
f 7/21/1 25/22/1 28/23/1 13/24/1
f 15/25/3 11/26/3 9/27/3 13/28/3
f 24/29/4 10/30/4 16/31/4 20/32/4
f 14/33/1 10/34/1 24/35/1 23/36/1
f 16/37/6 17/38/6 21/39/6 20/40/6
f 17/41/4 18/42/4 22/15/4 21/43/4
f 23/44/4 19/14/4 12/45/4 14/46/4
f 15/47/4 18/42/4 12/45/4 11/48/4
f 17/49/5 16/50/5 10/51/5 14/52/5
f 17/53/3 12/54/3 14/55/3 14/55/3
f 5/56/2 7/21/2 13/24/2 9/57/2
f 6/13/6 5/56/6 9/57/6 11/48/6
f 24/58/3 20/59/3 21/60/3 23/61/3
f 28/62/5 2/63/5 4/64/5 27/7/5
f 25/65/4 1/10/4 2/66/4 28/67/4
f 13/24/1 28/23/1 27/68/1 15/69/1
f 8/70/1 26/71/1 25/22/1 7/21/1
f 15/69/1 27/68/1 26/71/1 8/70/1
