# Blender v2.92.0 OBJ File: 'bus_remapper.blend'
# www.blender.org
mtllib bus_remapper.mtl
o Cube.001
v 0.25000 -0.00000 0.93750
v 0.25000 0.12500 0.93750
v 0.25000 0.12500 0.06250
v 0.25000 0.00000 0.06250
v 0.75000 0.12500 0.06250
v 0.75000 0.00000 0.06250
v 0.75000 0.12500 0.93750
v 0.75000 -0.00000 0.93750
vt 0.875000 0.000000
vt 1.000000 0.000000
vt 1.000000 0.875000
vt 0.875000 0.875000
vt 0.000000 0.500000
vt 0.125000 0.500000
vt 0.125000 0.875000
vt -0.000000 0.875000
vt 0.875000 0.000000
vt 1.000000 0.000000
vt 1.000000 0.875000
vt 0.875000 0.875000
vt 0.750000 0.500000
vt 0.875000 0.500000
vt 0.875000 0.875000
vt 0.750000 0.875000
vt 0.000000 1.000000
vt -0.000000 0.500000
vt 0.875000 0.500000
vt 0.875000 1.000000
vt -0.000000 0.500000
vt 0.000000 0.000000
vt 0.875000 -0.000000
vn -1.0000 0.0000 0.0000
vn 0.0000 0.0000 -1.0000
vn 1.0000 0.0000 0.0000
vn 0.0000 0.0000 1.0000
vn 0.0000 -1.0000 -0.0000
vn 0.0000 1.0000 0.0000
usemtl None
s off
f 1/1/1 2/2/1 3/3/1 4/4/1
f 4/5/2 3/6/2 5/7/2 6/8/2
f 6/9/3 5/10/3 7/11/3 8/12/3
f 8/13/4 7/14/4 2/15/4 1/16/4
f 4/17/5 6/18/5 8/19/5 1/20/5
f 5/21/6 3/22/6 2/23/6 7/14/6
o Cube.003_Cube.000
v 0.37500 0.31250 0.37500
v 0.37500 0.56250 0.37500
v 0.37500 0.56250 0.12500
v 0.37500 0.31250 0.12500
v 0.62500 0.56250 0.12500
v 0.62500 0.31250 0.12500
v 0.62500 0.56250 0.37500
v 0.62500 0.31250 0.37500
v 0.31250 0.25000 0.43750
v 0.31250 0.31250 0.43750
v 0.31250 0.31250 0.06250
v 0.31250 0.25000 0.06250
v 0.68750 0.31250 0.06250
v 0.68750 0.25000 0.06250
v 0.68750 0.31250 0.43750
v 0.68750 0.25000 0.43750
v 0.37500 0.12500 0.37500
v 0.37500 0.25000 0.37500
v 0.37500 0.25000 0.12500
v 0.37500 0.12500 0.12500
v 0.62500 0.25000 0.12500
v 0.62500 0.12500 0.12500
v 0.62500 0.25000 0.37500
v 0.62500 0.12500 0.37500
v 0.68750 0.12500 0.12500
v 0.68750 0.25000 0.12500
v 0.62500 0.25000 0.12500
v 0.62500 0.12500 0.12500
v 0.68750 0.12500 0.06250
v 0.68750 0.25000 0.06250
v 0.62500 0.12500 0.06250
v 0.62500 0.25000 0.06250
v 0.62500 0.12500 0.43750
v 0.62500 0.25000 0.43750
v 0.62500 0.25000 0.37500
v 0.62500 0.12500 0.37500
v 0.68750 0.25000 0.37500
v 0.68750 0.12500 0.37500
v 0.68750 0.25000 0.43750
v 0.68750 0.12500 0.43750
v 0.37500 0.12500 0.43750
v 0.37500 0.25000 0.43750
v 0.31250 0.25000 0.43750
v 0.31250 0.12500 0.43750
v 0.37500 0.12500 0.37500
v 0.37500 0.25000 0.37500
v 0.31250 0.12500 0.37500
v 0.31250 0.25000 0.37500
v 0.31250 0.12500 0.12500
v 0.31250 0.25000 0.12500
v 0.31250 0.25000 0.06250
v 0.31250 0.12500 0.06250
v 0.37500 0.25000 0.06250
v 0.37500 0.12500 0.06250
v 0.37500 0.25000 0.12500
v 0.37500 0.12500 0.12500
vt 0.250000 0.750000
vt 0.000000 0.750000
vt 0.000000 1.000000
vt 0.250000 1.000000
vt -0.000000 0.750000
vt 0.250000 0.750000
vt 0.000000 1.000000
vt 0.250000 0.750000
vt 0.250000 1.000000
vt 0.000000 1.000000
vt 0.500000 0.750000
vt 0.500000 1.000000
vt 0.250000 1.000000
vt 0.375000 0.687500
vt 0.375000 0.750000
vt -0.000000 0.750000
vt -0.000000 0.687500
vt -0.000000 0.375000
vt 0.062500 0.375000
vt 0.062500 0.750000
vt -0.000000 0.750000
vt 0.375000 0.750000
vt 0.312500 0.750000
vt 0.312500 0.375000
vt 0.375000 0.375000
vt -0.000000 0.437500
vt -0.000000 0.375000
vt 0.375000 0.375000
vt 0.375000 0.437500
vt -0.000000 0.750000
vt -0.000000 0.375000
vt 0.375000 0.750000
vt 0.375000 0.375000
vt 0.375000 0.750000
vt -0.000000 0.750000
vt 0.000000 0.250000
vt 0.000000 0.375000
vt 0.250000 0.375000
vt 0.250000 0.250000
vt 0.750000 0.250000
vt 0.750000 0.375000
vt 1.000000 0.375000
vt 1.000000 0.250000
vt 0.250000 0.250000
vt 0.250000 0.375000
vt 0.500000 0.375000
vt 0.500000 0.250000
vt 0.750000 0.375000
vt 0.750000 0.250000
vt 0.375000 0.625000
vt 0.500000 0.625000
vt 0.500000 0.687500
vt 0.375000 0.687500
vt 0.375000 0.562500
vt 0.500000 0.562500
vt 0.375000 0.687500
vt 0.500000 0.687500
vt 0.500000 0.750000
vt 0.375000 0.750000
vt 0.375000 0.500000
vt 0.500000 0.500000
vt 0.500000 0.562500
vt 0.375000 0.562500
vt 0.375000 0.500000
vt 0.500000 0.500000
vt 0.500000 0.562500
vt 0.375000 0.562500
vt 0.375000 0.687500
vt 0.500000 0.687500
vt 0.500000 0.750000
vt 0.375000 0.750000
vt 0.375000 0.562500
vt 0.500000 0.562500
vt 0.500000 0.625000
vt 0.375000 0.625000
vt 0.500000 0.687500
vt 0.375000 0.687500
vt 0.375000 0.625000
vt 0.500000 0.625000
vt 0.500000 0.687500
vt 0.375000 0.687500
vt 0.375000 0.562500
vt 0.500000 0.562500
vt 0.375000 0.687500
vt 0.500000 0.687500
vt 0.500000 0.750000
vt 0.375000 0.750000
vt 0.375000 0.500000
vt 0.500000 0.500000
vt 0.500000 0.562500
vt 0.375000 0.562500
vt 0.375000 0.500000
vt 0.500000 0.500000
vt 0.500000 0.562500
vt 0.375000 0.562500
vt 0.375000 0.687500
vt 0.500000 0.687500
vt 0.500000 0.750000
vt 0.375000 0.750000
vt 0.375000 0.562500
vt 0.500000 0.562500
vt 0.500000 0.625000
vt 0.375000 0.625000
vt 0.500000 0.687500
vt 0.375000 0.687500
vn -0.7071 -0.0000 0.7071
vn -0.5774 0.5774 0.5774
vn -0.5774 0.5774 -0.5774
vn -0.7071 0.0000 -0.7071
vn 0.5774 0.5774 -0.5774
vn 0.7071 0.0000 -0.7071
vn 0.5774 0.5774 0.5774
vn 0.7071 -0.0000 0.7071
vn -0.5774 -0.5774 0.5774
vn -0.5774 -0.5774 -0.5774
vn 0.5774 -0.5774 -0.5774
vn 0.5774 -0.5774 0.5774
usemtl None.001
s 1
f 9/24/7 10/25/8 11/26/9 12/27/10
f 12/27/10 11/26/9 13/28/11 14/29/12
f 14/30/12 13/28/11 15/31/13 16/32/14
f 16/32/14 15/33/13 10/25/8 9/24/7
f 13/34/11 11/35/9 10/36/8 15/31/13
f 17/37/15 18/38/8 19/39/9 20/40/16
f 20/41/16 19/42/9 21/43/11 22/44/17
f 22/45/17 21/46/11 23/47/13 24/48/18
f 24/49/18 23/50/13 18/51/8 17/52/15
f 20/53/16 22/54/17 24/48/18 17/55/15
f 21/56/11 19/57/9 18/58/8 23/50/13
f 25/59/7 26/60/7 27/61/10 28/62/10
f 28/63/10 27/64/10 29/65/12 30/66/12
f 30/67/12 29/68/12 31/69/14 32/70/14
f 32/70/14 31/69/14 26/71/7 25/72/7
f 33/73/14 34/74/14 35/75/7 36/76/7
f 37/77/12 38/78/12 34/74/14 33/73/14
f 39/79/10 40/80/10 38/81/12 37/82/12
f 36/83/7 35/84/7 40/85/10 39/86/10
f 41/87/7 42/88/7 43/89/10 44/90/10
f 44/91/10 43/92/10 45/93/12 46/94/12
f 46/95/12 45/96/12 47/97/14 48/98/14
f 48/98/14 47/97/14 42/99/7 41/100/7
f 49/101/14 50/102/14 51/103/7 52/104/7
f 53/105/12 54/106/12 50/102/14 49/101/14
f 55/107/10 56/108/10 54/109/12 53/110/12
f 52/111/7 51/112/7 56/113/10 55/114/10
f 57/115/7 58/116/7 59/117/10 60/118/10
f 60/119/10 59/120/10 61/121/12 62/122/12
f 62/123/12 61/124/12 63/125/14 64/126/14
f 64/126/14 63/125/14 58/127/7 57/128/7
o Cube.003_Cube.001
v 0.37500 0.31250 0.87500
v 0.37500 0.56250 0.87500
v 0.37500 0.56250 0.62500
v 0.37500 0.31250 0.62500
v 0.62500 0.56250 0.62500
v 0.62500 0.31250 0.62500
v 0.62500 0.56250 0.87500
v 0.62500 0.31250 0.87500
v 0.31250 0.25000 0.93750
v 0.31250 0.31250 0.93750
v 0.31250 0.31250 0.56250
v 0.31250 0.25000 0.56250
v 0.68750 0.31250 0.56250
v 0.68750 0.25000 0.56250
v 0.68750 0.31250 0.93750
v 0.68750 0.25000 0.93750
v 0.37500 0.12500 0.87500
v 0.37500 0.25000 0.87500
v 0.37500 0.25000 0.62500
v 0.37500 0.12500 0.62500
v 0.62500 0.25000 0.62500
v 0.62500 0.12500 0.62500
v 0.62500 0.25000 0.87500
v 0.62500 0.12500 0.87500
v 0.68750 0.12500 0.62500
v 0.68750 0.25000 0.62500
v 0.62500 0.25000 0.62500
v 0.62500 0.12500 0.62500
v 0.68750 0.12500 0.56250
v 0.68750 0.25000 0.56250
v 0.62500 0.12500 0.56250
v 0.62500 0.25000 0.56250
v 0.62500 0.12500 0.93750
v 0.62500 0.25000 0.93750
v 0.62500 0.25000 0.87500
v 0.62500 0.12500 0.87500
v 0.68750 0.25000 0.87500
v 0.68750 0.12500 0.87500
v 0.68750 0.25000 0.93750
v 0.68750 0.12500 0.93750
v 0.37500 0.12500 0.93750
v 0.37500 0.25000 0.93750
v 0.31250 0.25000 0.93750
v 0.31250 0.12500 0.93750
v 0.37500 0.12500 0.87500
v 0.37500 0.25000 0.87500
v 0.31250 0.12500 0.87500
v 0.31250 0.25000 0.87500
v 0.31250 0.12500 0.62500
v 0.31250 0.25000 0.62500
v 0.31250 0.25000 0.56250
v 0.31250 0.12500 0.56250
v 0.37500 0.25000 0.56250
v 0.37500 0.12500 0.56250
v 0.37500 0.25000 0.62500
v 0.37500 0.12500 0.62500
vt 0.250000 0.750000
vt 0.000000 0.750000
vt 0.000000 1.000000
vt 0.250000 1.000000
vt -0.000000 0.750000
vt 0.250000 0.750000
vt 0.000000 1.000000
vt 0.250000 0.750000
vt 0.250000 1.000000
vt 0.000000 1.000000
vt 0.500000 0.750000
vt 0.500000 1.000000
vt 0.250000 1.000000
vt 0.375000 0.687500
vt 0.375000 0.750000
vt -0.000000 0.750000
vt -0.000000 0.687500
vt -0.000000 0.375000
vt 0.062500 0.375000
vt 0.062500 0.750000
vt -0.000000 0.750000
vt 0.375000 0.750000
vt 0.312500 0.750000
vt 0.312500 0.375000
vt 0.375000 0.375000
vt -0.000000 0.437500
vt -0.000000 0.375000
vt 0.375000 0.375000
vt 0.375000 0.437500
vt -0.000000 0.750000
vt -0.000000 0.375000
vt 0.375000 0.750000
vt 0.375000 0.375000
vt 0.375000 0.750000
vt -0.000000 0.750000
vt 0.000000 0.250000
vt 0.000000 0.375000
vt 0.250000 0.375000
vt 0.250000 0.250000
vt 0.750000 0.250000
vt 0.750000 0.375000
vt 1.000000 0.375000
vt 1.000000 0.250000
vt 0.250000 0.250000
vt 0.250000 0.375000
vt 0.500000 0.375000
vt 0.500000 0.250000
vt 0.750000 0.375000
vt 0.750000 0.250000
vt 0.375000 0.625000
vt 0.500000 0.625000
vt 0.500000 0.687500
vt 0.375000 0.687500
vt 0.375000 0.562500
vt 0.500000 0.562500
vt 0.375000 0.687500
vt 0.500000 0.687500
vt 0.500000 0.750000
vt 0.375000 0.750000
vt 0.375000 0.500000
vt 0.500000 0.500000
vt 0.500000 0.562500
vt 0.375000 0.562500
vt 0.375000 0.500000
vt 0.500000 0.500000
vt 0.500000 0.562500
vt 0.375000 0.562500
vt 0.375000 0.687500
vt 0.500000 0.687500
vt 0.500000 0.750000
vt 0.375000 0.750000
vt 0.375000 0.562500
vt 0.500000 0.562500
vt 0.500000 0.625000
vt 0.375000 0.625000
vt 0.500000 0.687500
vt 0.375000 0.687500
vt 0.375000 0.625000
vt 0.500000 0.625000
vt 0.500000 0.687500
vt 0.375000 0.687500
vt 0.375000 0.562500
vt 0.500000 0.562500
vt 0.375000 0.687500
vt 0.500000 0.687500
vt 0.500000 0.750000
vt 0.375000 0.750000
vt 0.375000 0.500000
vt 0.500000 0.500000
vt 0.500000 0.562500
vt 0.375000 0.562500
vt 0.375000 0.500000
vt 0.500000 0.500000
vt 0.500000 0.562500
vt 0.375000 0.562500
vt 0.375000 0.687500
vt 0.500000 0.687500
vt 0.500000 0.750000
vt 0.375000 0.750000
vt 0.375000 0.562500
vt 0.500000 0.562500
vt 0.500000 0.625000
vt 0.375000 0.625000
vt 0.500000 0.687500
vt 0.375000 0.687500
vn -0.7071 -0.0000 0.7071
vn -0.5774 0.5774 0.5774
vn -0.5774 0.5774 -0.5774
vn -0.7071 0.0000 -0.7071
vn 0.5774 0.5774 -0.5774
vn 0.7071 0.0000 -0.7071
vn 0.5774 0.5774 0.5774
vn 0.7071 -0.0000 0.7071
vn -0.5774 -0.5774 0.5774
vn -0.5774 -0.5774 -0.5774
vn 0.5774 -0.5774 -0.5774
vn 0.5774 -0.5774 0.5774
usemtl None.002
s 1
f 65/129/19 66/130/20 67/131/21 68/132/22
f 68/132/22 67/131/21 69/133/23 70/134/24
f 70/135/24 69/133/23 71/136/25 72/137/26
f 72/137/26 71/138/25 66/130/20 65/129/19
f 69/139/23 67/140/21 66/141/20 71/136/25
f 73/142/27 74/143/20 75/144/21 76/145/28
f 76/146/28 75/147/21 77/148/23 78/149/29
f 78/150/29 77/151/23 79/152/25 80/153/30
f 80/154/30 79/155/25 74/156/20 73/157/27
f 76/158/28 78/159/29 80/153/30 73/160/27
f 77/161/23 75/162/21 74/163/20 79/155/25
f 81/164/19 82/165/19 83/166/22 84/167/22
f 84/168/22 83/169/22 85/170/24 86/171/24
f 86/172/24 85/173/24 87/174/26 88/175/26
f 88/175/26 87/174/26 82/176/19 81/177/19
f 89/178/26 90/179/26 91/180/19 92/181/19
f 93/182/24 94/183/24 90/179/26 89/178/26
f 95/184/22 96/185/22 94/186/24 93/187/24
f 92/188/19 91/189/19 96/190/22 95/191/22
f 97/192/19 98/193/19 99/194/22 100/195/22
f 100/196/22 99/197/22 101/198/24 102/199/24
f 102/200/24 101/201/24 103/202/26 104/203/26
f 104/203/26 103/202/26 98/204/19 97/205/19
f 105/206/26 106/207/26 107/208/19 108/209/19
f 109/210/24 110/211/24 106/207/26 105/206/26
f 111/212/22 112/213/22 110/214/24 109/215/24
f 108/216/19 107/217/19 112/218/22 111/219/22
f 113/220/19 114/221/19 115/222/22 116/223/22
f 116/224/22 115/225/22 117/226/24 118/227/24
f 118/228/24 117/229/24 119/230/26 120/231/26
f 120/231/26 119/230/26 114/232/19 113/233/19
