mtllib bus_interface.mtl
o BusInterface
v 0.37500 0.31250 0.62500
v 0.37500 0.56250 0.62500
v 0.37500 0.56250 0.37500
v 0.37500 0.31250 0.37500
v 0.62500 0.56250 0.37500
v 0.62500 0.31250 0.37500
v 0.62500 0.56250 0.62500
v 0.62500 0.31250 0.62500
v 0.25000 -0.00000 0.75000
v 0.25000 0.12500 0.75000
v 0.25000 0.12500 0.25000
v 0.25000 0.00000 0.25000
v 0.75000 0.12500 0.25000
v 0.75000 0.00000 0.25000
v 0.75000 0.12500 0.75000
v 0.75000 -0.00000 0.75000
v 0.31250 0.25000 0.68750
v 0.31250 0.31250 0.68750
v 0.31250 0.31250 0.31250
v 0.31250 0.25000 0.31250
v 0.68750 0.31250 0.31250
v 0.68750 0.25000 0.31250
v 0.68750 0.31250 0.68750
v 0.68750 0.25000 0.68750
v 0.37500 0.12500 0.62500
v 0.37500 0.25000 0.62500
v 0.37500 0.25000 0.37500
v 0.37500 0.12500 0.37500
v 0.62500 0.25000 0.37500
v 0.62500 0.12500 0.37500
v 0.62500 0.25000 0.62500
v 0.62500 0.12500 0.62500
v 0.68750 0.12500 0.37500
v 0.68750 0.25000 0.37500
v 0.62500 0.25000 0.37500
v 0.62500 0.12500 0.37500
v 0.68750 0.12500 0.31250
v 0.68750 0.25000 0.31250
v 0.62500 0.12500 0.31250
v 0.62500 0.25000 0.31250
v 0.62500 0.12500 0.68750
v 0.62500 0.25000 0.68750
v 0.62500 0.25000 0.62500
v 0.62500 0.12500 0.62500
v 0.68750 0.25000 0.62500
v 0.68750 0.12500 0.62500
v 0.68750 0.25000 0.68750
v 0.68750 0.12500 0.68750
v 0.37500 0.12500 0.68750
v 0.37500 0.25000 0.68750
v 0.31250 0.25000 0.68750
v 0.31250 0.12500 0.68750
v 0.37500 0.12500 0.62500
v 0.37500 0.25000 0.62500
v 0.31250 0.12500 0.62500
v 0.31250 0.25000 0.62500
v 0.31250 0.12500 0.37500
v 0.31250 0.25000 0.37500
v 0.31250 0.25000 0.31250
v 0.31250 0.12500 0.31250
v 0.37500 0.25000 0.31250
v 0.37500 0.12500 0.31250
v 0.37500 0.25000 0.37500
v 0.37500 0.12500 0.37500
vt 0.2500 0.7500
vt 0.0000 0.7500
vt 0.0000 1.0000
vt 0.2500 1.0000
vt -0.0000 0.7500
vt 0.2500 0.7500
vt 0.0000 1.0000
vt 0.2500 0.7500
vt 0.2500 1.0000
vt 0.0000 1.0000
vt 0.5000 0.7500
vt 0.5000 1.0000
vt 0.2500 1.0000
vt 0.5000 1.0000
vt 0.5000 0.8750
vt 0.9375 0.8750
vt 0.9375 1.0000
vt 0.5000 1.0000
vt 0.5000 0.8750
vt 0.9375 0.8750
vt 0.9375 1.0000
vt 0.9375 0.8750
vt 0.9375 1.0000
vt 0.5000 1.0000
vt 0.5000 0.8750
vt 0.9375 0.8750
vt 0.9375 1.0000
vt 0.5000 1.0000
vt 0.5000 0.8750
vt 1.0000 0.8750
vt 0.5000 0.8750
vt 0.5000 0.3750
vt 1.0000 0.3750
vt 1.0000 0.3750
vt 1.0000 0.8750
vt 0.5000 0.3750
vt 0.3750 0.6875
vt 0.3750 0.7500
vt -0.0000 0.7500
vt -0.0000 0.6875
vt -0.0000 0.3750
vt 0.0625 0.3750
vt 0.0625 0.7500
vt -0.0000 0.7500
vt 0.3750 0.7500
vt 0.3125 0.7500
vt 0.3125 0.3750
vt 0.3750 0.3750
vt -0.0000 0.4375
vt -0.0000 0.3750
vt 0.3750 0.3750
vt 0.3750 0.4375
vt -0.0000 0.7500
vt -0.0000 0.3750
vt 0.3750 0.7500
vt 0.3750 0.3750
vt 0.3750 0.7500
vt -0.0000 0.7500
vt 1.0000 0.2500
vt 1.0000 0.3750
vt 0.7500 0.3750
vt 0.7500 0.2500
vt 0.2500 0.2500
vt 0.2500 0.3750
vt 0.0000 0.3750
vt 0.0000 0.2500
vt 0.7500 0.2500
vt 0.7500 0.3750
vt 0.5000 0.3750
vt 0.5000 0.2500
vt 0.2500 0.3750
vt 0.2500 0.2500
vt 0.3750 0.6250
vt 0.5000 0.6250
vt 0.5000 0.6875
vt 0.3750 0.6875
vt 0.3750 0.5625
vt 0.5000 0.5625
vt 0.3750 0.6875
vt 0.5000 0.6875
vt 0.5000 0.7500
vt 0.3750 0.7500
vt 0.3750 0.5000
vt 0.5000 0.5000
vt 0.5000 0.5625
vt 0.3750 0.5625
vt 0.3750 0.5000
vt 0.5000 0.5000
vt 0.5000 0.5625
vt 0.3750 0.5625
vt 0.3750 0.6875
vt 0.5000 0.6875
vt 0.5000 0.7500
vt 0.3750 0.7500
vt 0.3750 0.5625
vt 0.5000 0.5625
vt 0.5000 0.6250
vt 0.3750 0.6250
vt 0.5000 0.6875
vt 0.3750 0.6875
vt 0.3750 0.6250
vt 0.5000 0.6250
vt 0.5000 0.6875
vt 0.3750 0.6875
vt 0.3750 0.5625
vt 0.5000 0.5625
vt 0.3750 0.6875
vt 0.5000 0.6875
vt 0.5000 0.7500
vt 0.3750 0.7500
vt 0.3750 0.5000
vt 0.5000 0.5000
vt 0.5000 0.5625
vt 0.3750 0.5625
vt 0.3750 0.5000
vt 0.5000 0.5000
vt 0.5000 0.5625
vt 0.3750 0.5625
vt 0.3750 0.6875
vt 0.5000 0.6875
vt 0.5000 0.7500
vt 0.3750 0.7500
vt 0.3750 0.5625
vt 0.5000 0.5625
vt 0.5000 0.6250
vt 0.3750 0.6250
vt 0.5000 0.6875
vt 0.3750 0.6875
vn -0.7071 -0.0000 0.7071
vn -0.5774 0.5774 0.5774
vn -0.5774 0.5774 -0.5774
vn -0.7071 0.0000 -0.7071
vn 0.5774 0.5774 -0.5774
vn 0.7071 0.0000 -0.7071
vn 0.5774 0.5774 0.5774
vn 0.7071 -0.0000 0.7071
vn -0.5774 -0.5774 0.5774
vn -0.5774 -0.5774 -0.5774
vn 0.5774 -0.5774 -0.5774
vn 0.5774 -0.5774 0.5774
usemtl interface
f 1/1/1 2/2/2 3/3/3 4/4/4
f 4/4/4 3/3/3 5/5/5 6/6/6
f 6/7/6 5/5/5 7/8/7 8/9/8
f 8/9/8 7/10/7 2/2/2 1/1/1
f 5/11/5 3/12/3 2/13/2 7/8/7
f 9/14/9 10/15/2 11/16/3 12/17/10
f 12/18/10 11/19/3 13/20/5 14/21/11
f 14/22/11 13/23/5 15/24/7 16/25/12
f 16/26/12 15/27/7 10/28/2 9/29/9
f 12/30/10 14/31/11 16/32/12 9/33/9
f 13/34/5 11/35/3 10/15/2 15/36/7
f 17/37/9 18/38/2 19/39/3 20/40/10
f 20/41/10 19/42/3 21/43/5 22/44/11
f 22/45/11 21/46/5 23/47/7 24/48/12
f 24/49/12 23/50/7 18/51/2 17/52/9
f 20/53/10 22/54/11 24/48/12 17/55/9
f 21/56/5 19/57/3 18/58/2 23/50/7
f 25/59/1 26/60/1 27/61/4 28/62/4
f 28/63/4 27/64/4 29/65/6 30/66/6
f 30/67/6 29/68/6 31/69/8 32/70/8
f 32/70/8 31/69/8 26/71/1 25/72/1
f 33/73/8 34/74/8 35/75/1 36/76/1
f 37/77/6 38/78/6 34/74/8 33/73/8
f 39/79/4 40/80/4 38/81/6 37/82/6
f 36/83/1 35/84/1 40/85/4 39/86/4
f 41/87/1 42/88/1 43/89/4 44/90/4
f 44/91/4 43/92/4 45/93/6 46/94/6
f 46/95/6 45/96/6 47/97/8 48/98/8
f 48/98/8 47/97/8 42/99/1 41/100/1
f 49/101/8 50/102/8 51/103/1 52/104/1
f 53/105/6 54/106/6 50/102/8 49/101/8
f 55/107/4 56/108/4 54/109/6 53/110/6
f 52/111/1 51/112/1 56/113/4 55/114/4
f 57/115/1 58/116/1 59/117/4 60/118/4
f 60/119/4 59/120/4 61/121/6 62/122/6
f 62/123/6 61/124/6 63/125/8 64/126/8
f 64/126/8 63/125/8 58/127/1 57/128/1
