mtllib bus_relay.mtl
o BusRelay
v 0.40625 0.31250 0.59375
v 0.40625 0.50000 0.59375
v 0.40625 0.31250 0.40625
v 0.40625 0.50000 0.40625
v 0.59375 0.31250 0.59375
v 0.59375 0.50000 0.59375
v 0.59375 0.31250 0.40625
v 0.59375 0.50000 0.40625
v 0.25000 0.00000 0.75000
v 0.25000 0.18750 0.75000
v 0.25000 0.00000 0.25000
v 0.25000 0.18750 0.25000
v 0.75000 0.00000 0.75000
v 0.75000 0.18750 0.75000
v 0.75000 0.00000 0.25000
v 0.75000 0.18750 0.25000
v 0.31250 0.18750 0.68750
v 0.31250 0.31250 0.68750
v 0.31250 0.18750 0.31250
v 0.31250 0.31250 0.31250
v 0.68750 0.18750 0.68750
v 0.68750 0.31250 0.68750
v 0.68750 0.18750 0.31250
v 0.68750 0.31250 0.31250
vt 0.1875 0.8125
vt 0.0000 0.8125
vt 0.0000 1.0000
vt 0.1875 1.0000
vt 0.0000 0.8125
vt 0.1875 0.8125
vt 0.0000 1.0000
vt 0.1875 0.8125
vt 0.1875 1.0000
vt 0.0000 1.0000
vt 0.3750 0.8125
vt 0.3750 1.0000
vt 0.1875 1.0000
vt 0.0000 0.1875
vt 0.0000 -0.0000
vt 0.3750 -0.0000
vt 0.3750 0.1875
vt -0.0000 0.3750
vt -0.0000 0.1875
vt 0.3750 0.1875
vt 0.3750 0.3750
vt 0.3750 0.1875
vt 0.3750 0.3750
vt 0.0000 0.3750
vt 0.0000 0.1875
vt 0.3750 0.0000
vt 0.3750 0.1875
vt -0.0000 0.1875
vt -0.0000 -0.0000
vt 1.0000 1.0000
vt 0.5000 1.0000
vt 0.5000 0.5000
vt 1.0000 0.5000
vt 1.0000 0.5000
vt 1.0000 1.0000
vt 0.5000 1.0000
vt 0.5000 0.5000
vt 0.6250 0.5000
vt 0.6250 0.3750
vt 1.0000 0.3750
vt 1.0000 0.5000
vt 0.6250 0.5000
vt 0.6250 0.3750
vt 1.0000 0.3750
vt 1.0000 0.5000
vt 1.0000 0.3750
vt 1.0000 0.5000
vt 0.6250 0.5000
vt 0.6250 0.3750
vt 1.0000 0.3750
vt 1.0000 0.5000
vt 0.6250 0.5000
vt 0.6250 0.3750
vt 0.3750 0.4375
vt 0.3750 0.8125
vt -0.0000 0.8125
vt -0.0000 0.4375
vn -1.0000 0.0000 0.0000
vn 0.0000 0.0000 -1.0000
vn 1.0000 0.0000 0.0000
vn 0.0000 0.0000 1.0000
vn 0.0000 1.0000 0.0000
vn 0.0000 -1.0000 0.0000
usemtl BusRelay
f 1/1/1 2/2/1 4/3/1 3/4/1
f 3/4/2 4/3/2 8/5/2 7/6/2
f 7/7/3 8/5/3 6/8/3 5/9/3
f 5/9/4 6/10/4 2/2/4 1/1/4
f 8/11/5 4/12/5 2/13/5 6/8/5
f 9/14/1 10/15/1 12/16/1 11/17/1
f 11/18/2 12/19/2 16/20/2 15/21/2
f 15/22/3 16/23/3 14/24/3 13/25/3
f 13/26/4 14/27/4 10/28/4 9/29/4
f 11/30/6 15/31/6 13/32/6 9/33/6
f 16/34/5 12/35/5 10/36/5 14/37/5
f 17/38/1 18/39/1 20/40/1 19/41/1
f 19/42/2 20/43/2 24/44/2 23/45/2
f 23/46/3 24/47/3 22/48/3 21/49/3
f 21/50/4 22/51/4 18/52/4 17/53/4
f 24/54/5 20/55/5 18/56/5 22/57/5
