mtllib line_access.mtl
o Base
v 0.31250 0.00000 0.93750
v 0.31250 0.12500 0.93750
v 0.31250 0.00000 0.06250
v 0.31250 0.12500 0.06250
v 0.68750 0.00000 0.93750
v 0.68750 0.12500 0.93750
v 0.68750 0.00000 0.06250
v 0.68750 0.12500 0.06250
vt 0.0000 1.0000
vt 0.0000 0.8750
vt 0.8750 0.8750
vt 0.8750 1.0000
vt 0.0000 0.5000
vt 0.1250 0.5000
vt 0.1250 0.8750
vt -0.0000 0.8750
vt -0.0000 0.5000
vt -0.0000 0.3750
vt 0.8750 0.3750
vt 0.8750 0.5000
vt 0.7500 0.5000
vt 0.8750 0.5000
vt 0.8750 0.8750
vt 0.7500 0.8750
vt 0.0000 0.8750
vt 0.8750 0.8750
vt 0.0000 0.0000
vt 0.8750 -0.0000
vn -1.0000 0.0000 0.0000
vn 0.0000 0.0000 -1.0000
vn 1.0000 0.0000 0.0000
vn 0.0000 0.0000 1.0000
vn 0.0000 -1.0000 0.0000
vn 0.0000 1.0000 0.0000
usemtl Base
f 1/1/1 2/2/1 4/3/1 3/4/1
f 3/5/2 4/6/2 8/7/2 7/8/2
f 7/9/3 8/10/3 6/11/3 5/12/3
f 5/13/4 6/14/4 2/15/4 1/16/4
f 3/17/5 7/9/5 5/12/5 1/18/5
f 8/10/6 4/19/6 2/20/6 6/11/6
o BusConnector
v 0.37500 0.31250 0.37500
v 0.37500 0.56250 0.37500
v 0.37500 0.56250 0.12500
v 0.37500 0.31250 0.12500
v 0.62500 0.56250 0.12500
v 0.62500 0.31250 0.12500
v 0.62500 0.56250 0.37500
v 0.62500 0.31250 0.37500
v 0.31250 0.25000 0.43750
v 0.31250 0.31250 0.43750
v 0.31250 0.31250 0.06250
v 0.31250 0.25000 0.06250
v 0.68750 0.31250 0.06250
v 0.68750 0.25000 0.06250
v 0.68750 0.31250 0.43750
v 0.68750 0.25000 0.43750
v 0.37500 0.12500 0.37500
v 0.37500 0.25000 0.37500
v 0.37500 0.25000 0.12500
v 0.37500 0.12500 0.12500
v 0.62500 0.25000 0.12500
v 0.62500 0.12500 0.12500
v 0.62500 0.25000 0.37500
v 0.62500 0.12500 0.37500
v 0.68750 0.12500 0.12500
v 0.68750 0.25000 0.12500
v 0.62500 0.25000 0.12500
v 0.62500 0.12500 0.12500
v 0.68750 0.12500 0.06250
v 0.68750 0.25000 0.06250
v 0.62500 0.12500 0.06250
v 0.62500 0.25000 0.06250
v 0.62500 0.12500 0.43750
v 0.62500 0.25000 0.43750
v 0.62500 0.25000 0.37500
v 0.62500 0.12500 0.37500
v 0.68750 0.25000 0.37500
v 0.68750 0.12500 0.37500
v 0.68750 0.25000 0.43750
v 0.68750 0.12500 0.43750
v 0.37500 0.12500 0.43750
v 0.37500 0.25000 0.43750
v 0.31250 0.25000 0.43750
v 0.31250 0.12500 0.43750
v 0.37500 0.12500 0.37500
v 0.37500 0.25000 0.37500
v 0.31250 0.12500 0.37500
v 0.31250 0.25000 0.37500
v 0.31250 0.12500 0.12500
v 0.31250 0.25000 0.12500
v 0.31250 0.25000 0.06250
v 0.31250 0.12500 0.06250
v 0.37500 0.25000 0.06250
v 0.37500 0.12500 0.06250
v 0.37500 0.25000 0.12500
v 0.37500 0.12500 0.12500
vt 0.2500 0.7500
vt 0.0000 0.7500
vt 0.0000 1.0000
vt 0.2500 1.0000
vt -0.0000 0.7500
vt 0.2500 0.7500
vt 0.0000 1.0000
vt 0.2500 0.7500
vt 0.2500 1.0000
vt 0.0000 1.0000
vt 0.5000 0.7500
vt 0.5000 1.0000
vt 0.2500 1.0000
vt 0.3750 0.6875
vt 0.3750 0.7500
vt -0.0000 0.7500
vt -0.0000 0.6875
vt -0.0000 0.3750
vt 0.0625 0.3750
vt 0.0625 0.7500
vt -0.0000 0.7500
vt 0.3750 0.7500
vt 0.3125 0.7500
vt 0.3125 0.3750
vt 0.3750 0.3750
vt -0.0000 0.4375
vt -0.0000 0.3750
vt 0.3750 0.3750
vt 0.3750 0.4375
vt -0.0000 0.7500
vt -0.0000 0.3750
vt 0.3750 0.7500
vt 0.3750 0.3750
vt 0.3750 0.7500
vt -0.0000 0.7500
vt 0.0000 0.2500
vt 0.0000 0.3750
vt 0.2500 0.3750
vt 0.2500 0.2500
vt 0.7500 0.2500
vt 0.7500 0.3750
vt 1.0000 0.3750
vt 1.0000 0.2500
vt 0.2500 0.2500
vt 0.2500 0.3750
vt 0.5000 0.3750
vt 0.5000 0.2500
vt 0.7500 0.3750
vt 0.7500 0.2500
vt 0.3750 0.6250
vt 0.5000 0.6250
vt 0.5000 0.6875
vt 0.3750 0.6875
vt 0.3750 0.5625
vt 0.5000 0.5625
vt 0.3750 0.6875
vt 0.5000 0.6875
vt 0.5000 0.7500
vt 0.3750 0.7500
vt 0.3750 0.5000
vt 0.5000 0.5000
vt 0.5000 0.5625
vt 0.3750 0.5625
vt 0.3750 0.5000
vt 0.5000 0.5000
vt 0.5000 0.5625
vt 0.3750 0.5625
vt 0.3750 0.6875
vt 0.5000 0.6875
vt 0.5000 0.7500
vt 0.3750 0.7500
vt 0.3750 0.5625
vt 0.5000 0.5625
vt 0.5000 0.6250
vt 0.3750 0.6250
vt 0.5000 0.6875
vt 0.3750 0.6875
vt 0.3750 0.6250
vt 0.5000 0.6250
vt 0.5000 0.6875
vt 0.3750 0.6875
vt 0.3750 0.5625
vt 0.5000 0.5625
vt 0.3750 0.6875
vt 0.5000 0.6875
vt 0.5000 0.7500
vt 0.3750 0.7500
vt 0.3750 0.5000
vt 0.5000 0.5000
vt 0.5000 0.5625
vt 0.3750 0.5625
vt 0.3750 0.5000
vt 0.5000 0.5000
vt 0.5000 0.5625
vt 0.3750 0.5625
vt 0.3750 0.6875
vt 0.5000 0.6875
vt 0.5000 0.7500
vt 0.3750 0.7500
vt 0.3750 0.5625
vt 0.5000 0.5625
vt 0.5000 0.6250
vt 0.3750 0.6250
vt 0.5000 0.6875
vt 0.3750 0.6875
vn -0.7071 -0.0000 0.7071
vn -0.5774 0.5774 0.5774
vn -0.5774 0.5774 -0.5774
vn -0.7071 0.0000 -0.7071
vn 0.5774 0.5774 -0.5774
vn 0.7071 0.0000 -0.7071
vn 0.5774 0.5774 0.5774
vn 0.7071 -0.0000 0.7071
vn -0.5774 -0.5774 0.5774
vn -0.5774 -0.5774 -0.5774
vn 0.5774 -0.5774 -0.5774
vn 0.5774 -0.5774 0.5774
usemtl BusConnector
f 9/21/7 10/22/8 11/23/9 12/24/10
f 12/24/10 11/23/9 13/25/11 14/26/12
f 14/27/12 13/25/11 15/28/13 16/29/14
f 16/29/14 15/30/13 10/22/8 9/21/7
f 13/31/11 11/32/9 10/33/8 15/28/13
f 17/34/15 18/35/8 19/36/9 20/37/16
f 20/38/16 19/39/9 21/40/11 22/41/17
f 22/42/17 21/43/11 23/44/13 24/45/18
f 24/46/18 23/47/13 18/48/8 17/49/15
f 20/50/16 22/51/17 24/45/18 17/52/15
f 21/53/11 19/54/9 18/55/8 23/47/13
f 25/56/7 26/57/7 27/58/10 28/59/10
f 28/60/10 27/61/10 29/62/12 30/63/12
f 30/64/12 29/65/12 31/66/14 32/67/14
f 32/67/14 31/66/14 26/68/7 25/69/7
f 33/70/14 34/71/14 35/72/7 36/73/7
f 37/74/12 38/75/12 34/71/14 33/70/14
f 39/76/10 40/77/10 38/78/12 37/79/12
f 36/80/7 35/81/7 40/82/10 39/83/10
f 41/84/7 42/85/7 43/86/10 44/87/10
f 44/88/10 43/89/10 45/90/12 46/91/12
f 46/92/12 45/93/12 47/94/14 48/95/14
f 48/95/14 47/94/14 42/96/7 41/97/7
f 49/98/14 50/99/14 51/100/7 52/101/7
f 53/102/12 54/103/12 50/99/14 49/98/14
f 55/104/10 56/105/10 54/106/12 53/107/12
f 52/108/7 51/109/7 56/110/10 55/111/10
f 57/112/7 58/113/7 59/114/10 60/115/10
f 60/116/10 59/117/10 61/118/12 62/119/12
f 62/120/12 61/121/12 63/122/14 64/123/14
f 64/123/14 63/122/14 58/124/7 57/125/7
o RedstoneConnector
v 0.37500 0.31250 0.87500
v 0.37500 0.12500 0.87500
v 0.62500 0.12500 0.87500
v 0.62500 0.31250 0.87500
v 0.62500 0.31250 0.62500
v 0.62500 0.12500 0.62500
v 0.37500 0.12500 0.62500
v 0.37500 0.31250 0.62500
v 0.31250 0.31250 0.56250
v 0.31250 0.31250 0.93750
v 0.68750 0.31250 0.93750
v 0.68750 0.31250 0.56250
v 0.31250 0.25000 0.93750
v 0.31250 0.25000 0.56250
v 0.68750 0.25000 0.56250
v 0.68750 0.25000 0.93750
v 0.31250 0.31250 0.56250
v 0.31250 0.12500 0.56250
v 0.31250 0.12500 0.93750
v 0.31250 0.31250 0.93750
v 0.68750 0.31250 0.56250
v 0.68750 0.31250 0.93750
v 0.68750 0.12500 0.93750
v 0.68750 0.12500 0.56250
v 0.37500 0.56250 0.87500
v 0.37500 0.31250 0.87500
v 0.62500 0.31250 0.87500
v 0.62500 0.56250 0.87500
v 0.62500 0.56250 0.62500
v 0.62500 0.31250 0.62500
v 0.37500 0.31250 0.62500
v 0.37500 0.56250 0.62500
v 0.37500 0.25000 0.56250
v 0.37500 0.25000 0.93750
v 0.37500 0.12500 0.93750
v 0.37500 0.12500 0.56250
v 0.62500 0.25000 0.56250
v 0.62500 0.12500 0.56250
v 0.62500 0.12500 0.93750
v 0.62500 0.25000 0.93750
v 0.31250 0.25000 0.87500
v 0.68750 0.25000 0.87500
v 0.68750 0.12500 0.87500
v 0.31250 0.12500 0.87500
v 0.31250 0.25000 0.62500
v 0.31250 0.12500 0.62500
v 0.68750 0.12500 0.62500
v 0.68750 0.25000 0.62500
vt 0.5000 0.2500
vt 0.5000 0.0000
vt 0.7500 0.0000
vt 0.7500 0.2500
vt 0.0000 0.2500
vt 0.0000 0.0000
vt 0.2500 0.0000
vt 0.2500 0.2500
vt 1.0000 0.2500
vt 1.0000 -0.0000
vt 0.6250 1.0000
vt 0.6250 0.6250
vt 1.0000 0.6250
vt 1.0000 1.0000
vt 1.0000 0.6250
vt 1.0000 1.0000
vt 0.6250 1.0000
vt 0.6250 0.6250
vt 0.6250 0.5625
vt 0.6250 0.3750
vt 1.0000 0.3750
vt 1.0000 0.5625
vt 1.0000 0.5625
vt 0.6250 0.5625
vt 0.6250 0.3750
vt 1.0000 0.3750
vt 0.6250 0.5625
vt 0.6250 0.3750
vt 1.0000 0.3750
vt 1.0000 0.5625
vt 0.6250 0.5625
vt 0.6250 0.3750
vt 1.0000 0.3750
vt 1.0000 0.5625
vt 0.2500 1.0000
vt 0.2500 0.7500
vt -0.0000 0.7500
vt -0.0000 1.0000
vt 0.2500 1.0000
vt 0.2500 0.7500
vt -0.0000 0.7500
vt -0.0000 1.0000
vt 0.2500 1.0000
vt 0.2500 0.7500
vt 0.5000 0.7500
vt 0.5000 1.0000
vt 1.0000 0.5000
vt 0.6250 0.5000
vt 0.6250 0.3750
vt 1.0000 0.3750
vt 1.0000 0.5000
vt 1.0000 0.3750
vt 0.6250 0.3750
vt 0.6250 0.5000
vt 1.0000 0.5000
vt 0.6250 0.5000
vt 0.6250 0.3750
vt 1.0000 0.3750
vt 1.0000 0.5000
vt 1.0000 0.3750
vt 0.6250 0.3750
vt 0.6250 0.5000
vn -0.7071 0.0000 0.7071
vn 0.7071 0.0000 0.7071
vn 0.7071 0.0000 -0.7071
vn -0.7071 0.0000 -0.7071
vn 0.0000 1.0000 0.0000
vn 0.0000 -1.0000 -0.0000
vn -0.5774 0.5774 0.5774
vn 0.5774 0.5774 0.5774
vn 0.5774 0.5774 -0.5774
vn -0.5774 0.5774 -0.5774
vn 1.0000 0.0000 0.0000
vn -1.0000 0.0000 0.0000
vn 0.0000 0.0000 -1.0000
vn 0.0000 0.0000 1.0000
usemtl RedstoneConnector
f 65/126/19 66/127/19 67/128/20 68/129/20
f 69/130/21 70/131/21 71/132/22 72/133/22
f 69/134/21 68/129/20 67/128/20 70/135/21
f 72/133/22 71/132/22 66/127/19 65/126/19
f 73/136/23 74/137/23 75/138/23 76/139/23
f 77/140/24 78/141/24 79/142/24 80/143/24
f 81/144/22 82/145/22 83/146/19 84/147/19
f 85/148/21 86/149/20 87/150/20 88/151/21
f 85/152/21 88/153/21 82/154/22 81/155/22
f 84/156/19 83/157/19 87/158/20 86/159/20
f 89/160/25 90/161/19 91/162/20 92/163/26
f 93/164/27 94/165/21 95/166/22 96/167/28
f 96/168/28 89/169/25 92/170/26 93/171/27
f 93/164/27 92/163/26 91/162/20 94/165/21
f 96/167/28 95/166/22 90/161/19 89/160/25
f 97/172/29 98/173/29 99/174/29 100/175/29
f 101/176/30 102/177/30 103/178/30 104/179/30
f 105/180/31 106/181/31 107/182/31 108/183/31
f 109/184/32 110/185/32 111/186/32 112/187/32
