# Blender v2.78 (sub 0) OBJ File: 'panel_cnc.blend'
# www.blender.org
mtllib panel_cnc_drill.mtl
o Drill_Cone.001
v 0.46875 0.3125 0.53125 
v 0.46875 0.75 0.53125 
v 0.46875 0.3125 0.46875 
v 0.46875 0.75 0.46875 
v 0.53125 0.3125 0.53125 
v 0.53125 0.75 0.53125 
v 0.53125 0.3125 0.46875 
v 0.53125 0.7499999375 0.46875 
v 0.46875 0.3125 0.53125 
v 0.5 0.21875 0.5 
v 0.53125 0.3124999375 0.53125 
v 0.53125 0.3124999375 0.46875 
v 0.46875 0.3125 0.46875 
vt 0.0625 0.2812
vt 0.0625 0.0625
vt 0.0781 0.0625
vt 0.0781 0.2812
vt 0.0938 0.0625
vt 0.0938 0.2812
vt 0.0312 0.2812
vt 0.0312 0.0625
vt 0.0469 0.0625
vt 0.0469 0.2812
vt 0.1719 0.4688
vt 0.1406 0.4531
vt 0.1719 0.4375
vt 0.2344 0.4688
vt 0.2031 0.4531
vt 0.2344 0.4375
vt 0.2031 0.4688
vt 0.1719 0.4531
vt 0.2031 0.4375
vt 0.1406 0.4688
vt 0.1094 0.4531
vt 0.1406 0.4375
vn -1.0000 0.0000 -0.0000
vn 0.0000 -0.0000 -1.0000
vn 1.0000 0.0000 -0.0000
vn 0.0000 0.0000 1.0000
vn -0.0000 -0.3162 0.9487
vn 0.9487 -0.3162 0.0000
vn -0.0000 -0.3162 -0.9487
vn -0.9487 -0.3162 0.0000
usemtl None
f 1/1/1 2/2/1 4/3/1 3/4/1
f 3/4/2 4/3/2 8/5/2 7/6/2
f 7/7/3 8/8/3 6/9/3 5/10/3
f 5/10/4 6/9/4 2/2/4 1/1/4
f 9/11/5 10/12/5 11/13/5 11/13/5
f 11/14/6 10/15/6 12/16/6 12/16/6
f 12/17/7 10/18/7 13/19/7 13/19/7
f 13/20/8 10/21/8 9/22/8 9/22/8
