# Blender v2.78 (sub 0) OBJ File: 'panel_cnc.blend'
# www.blender.org
mtllib panel_cnc.mtl
usemtl cnc
o Base
v 0.0625 0.0625 0.9375 
v 0.0625 0.0625 0.0625 
v 0.9375 0.0625 0.9375 
v 0.9375 0.0625 0.0625 
v 0.0 0.0 1.0 
v 0.0 0.125 1.0 
v 0.0 0.0 0.0 
v 0.0 0.125 0.0 
v 1.0 0.0 1.0 
v 1.0 0.125 1.0 
v 1.0 0.0 0.0 
v 1.0 0.125 0.0 
v 0.0625 0.125 0.9375 
v 0.9375 0.125 0.9375 
v 0.0625 0.125 0.0625 
v 0.9375 0.125 0.0625 
vt 0.5156 0.4688
vt 0.7344 0.4688
vt 0.7344 0.5000
vt 0.5156 0.5000
vt 0.7344 0.0312
vt 0.7500 0.0312
vt 0.7500 0.4688
vt 0.5156 -0.0000
vt 0.7344 0.0000
vt 0.7344 0.0312
vt 0.5156 0.0312
vt 0.5156 0.0312
vt 0.5000 0.4688
vt 0.5000 0.0312
vt 0.5000 0.8125
vt 0.5000 0.8750
vt 0.2500 0.8750
vt 0.2500 0.8125
vt 0.0625 1.0000
vt 0.0312 1.0000
vt 0.0312 0.5000
vt 0.0625 0.5000
vt 0.2500 0.9062
vt 0.2500 0.8438
vt 0.5000 0.8438
vt 0.5000 0.9062
vt 0.2500 1.0000
vt 0.2188 1.0000
vt 0.2188 0.5000
vt 0.2500 0.5000
vt 0.7500 0.0000
vt 0.7500 0.5000
vt 0.5000 0.5000
vt 0.5000 0.0000
vt 0.5000 0.0000
vt 0.4844 0.0312
vt 0.2656 0.0312
vt 0.2500 0.0000
vt 0.2500 0.5000
vt 0.2656 0.4687
vt 0.4844 0.4687
vt 0.5000 0.5000
vn 1.0000 0.0000 0.0000
vn 0.0000 0.0000 1.0000
vn -1.0000 0.0000 0.0000
vn 0.0000 0.0000 -1.0000
vn 0.0000 -1.0000 0.0000
vn 0.0000 1.0000 0.0000
f 1/1/1 2/2/1 15/3/1 13/4/1
f 2/2/2 4/5/2 16/6/2 15/7/2
f 4/8/3 3/9/3 14/10/3 16/11/3
f 3/12/4 1/1/4 13/13/4 14/14/4
f 5/15/3 6/16/3 8/17/3 7/18/3
f 7/19/4 8/20/4 12/21/4 11/22/4
f 11/23/1 12/24/1 10/25/1 9/26/1
f 9/27/2 10/28/2 6/29/2 5/30/2
f 7/31/5 11/32/5 9/33/5 5/34/5
f 2/2/6 1/1/6 3/12/6 4/5/6
f 12/35/6 16/36/6 14/37/6 10/38/6
f 6/39/6 13/40/6 15/41/6 8/42/6
f 10/38/6 14/37/6 13/40/6 6/39/6
f 8/42/6 15/41/6 16/36/6 12/35/6
o Player
v 0.4375 0.8750000625 0.34375 
v 0.4375 1.0 0.34375 
v 0.4375 0.8750000625 0.28125 
v 0.4375 1.0 0.28125 
v 0.5625 0.8750000625 0.34375 
v 0.5625 1.0 0.34375 
v 0.5625 0.8750000625 0.28125 
v 0.5625 1.0 0.28125 
v 0.28125 0.8750000625 0.53125 
v 0.28125 1.0 0.53125 
v 0.28125 0.8750000625 0.46875 
v 0.28125 1.0 0.46875 
v 0.34375 0.8750000625 0.53125 
v 0.34375 1.0 0.53125 
v 0.34375 0.8750000625 0.46875 
v 0.34375 1.0 0.46875 
v 0.125 0.8750000625 0.75 
v 0.125 0.8750000625 0.25 
v 0.875 0.8750000625 0.75 
v 0.875 0.8750000625 0.25 
v 0.0 0.75 1.0 
v 0.0 1.0 1.0 
v 0.0 0.75 0.0 
v 0.0 1.0 0.0 
v 1.0 0.75 1.0 
v 1.0 1.0 1.0 
v 1.0 0.75 0.0 
v 1.0 1.0 0.0 
v 0.125 1.0 0.75 
v 0.875 1.0 0.75 
v 0.125 1.0 0.25 
v 0.875 1.0 0.25 
v 0.65625 0.8750000625 0.53125 
v 0.65625 1.0 0.53125 
v 0.65625 0.8750000625 0.46875 
v 0.65625 1.0 0.46875 
v 0.71875 0.8750000625 0.53125 
v 0.71875 1.0 0.53125 
v 0.71875 0.8750000625 0.46875 
v 0.71875 1.0 0.46875 
vt 0.3281 1.0000
vt 0.3281 0.9375
vt 0.3438 0.9375
vt 0.3438 1.0000
vt 0.3281 0.9375
vt 0.3281 1.0000
vt 0.2969 1.0000
vt 0.2969 0.9375
vt 0.2812 1.0000
vt 0.2812 0.9375
vt 0.2500 1.0000
vt 0.2500 0.9375
vt 0.2812 0.9375
vt 0.2812 1.0000
vt 0.3438 1.0000
vt 0.3594 0.9375
vt 0.3594 1.0000
vt 0.3438 1.0000
vt 0.3125 1.0000
vt 0.3125 0.9688
vt 0.3438 0.9688
vt 0.3750 1.0000
vt 0.3438 1.0000
vt 0.3438 0.9688
vt 0.3750 0.9688
vt 0.2500 0.9688
vt 0.2812 0.9688
vt 0.2812 1.0000
vt 0.2500 1.0000
vt 0.3125 1.0000
vt 0.2812 0.9688
vt 0.3125 0.9688
vt 0.3594 0.9688
vt 0.3594 1.0000
vt 0.3438 1.0000
vt 0.3438 0.9688
vt 0.3750 0.9375
vt 0.2500 0.9375
vt 0.2500 1.0000
vt 0.3750 1.0000
vt 0.4375 0.9375
vt 0.2500 0.9375
vt 0.2500 1.0000
vt 0.4375 1.0000
vt 0.5625 0.9375
vt 0.4375 0.9375
vt 0.4375 1.0000
vt 0.5625 1.0000
vt 0.5625 0.9375
vt 0.5625 1.0000
vt 0.0625 0.9375
vt 0.1875 0.9375
vt 0.1875 0.5625
vt 0.0625 0.5625
vt 0.5000 0.8125
vt 0.5000 0.9375
vt 0.2500 0.9375
vt 0.2500 0.8125
vt 0.0000 0.5000
vt 0.0625 0.5000
vt 0.0625 1.0000
vt 0.0000 1.0000
vt 0.5000 0.8125
vt 0.5000 0.9375
vt 0.2500 0.9375
vt 0.2500 0.8125
vt 0.2500 1.0000
vt 0.1875 1.0000
vt 0.1875 0.5000
vt 0.2500 0.5000
vt 0.2500 0.5000
vt 0.0000 0.5000
vt 0.0000 -0.0000
vt 0.2500 -0.0000
vt 0.2500 1.0000
vt 0.0000 1.0000
vt 0.0625 0.9375
vt 0.1875 0.9375
vt 0.1875 0.5625
vt 0.2500 0.5000
vt 0.3125 0.9688
vt 0.2812 0.9688
vt 0.2812 0.9375
vt 0.3125 0.9375
vt 0.3750 0.9688
vt 0.3438 0.9688
vt 0.3438 0.9375
vt 0.3750 0.9375
vt 0.3125 0.9375
vt 0.3438 0.9688
vt 0.3125 0.9688
vt 0.2812 0.9688
vt 0.2500 0.9688
vt 0.2500 0.9375
vt 0.2812 0.9375
vt 0.3594 0.9688
vt 0.3594 1.0000
vt 0.3438 1.0000
vt 0.0000 0.5000
vt 0.0625 0.5625
vn -1.0000 0.0000 0.0000
vn 0.0000 0.0000 -1.0000
vn 1.0000 0.0000 0.0000
vn 0.0000 0.0000 1.0000
vn 0.0000 1.0000 0.0000
vn 0.0000 -1.0000 0.0000
f 17/43/7 18/44/7 20/45/7 19/46/7
f 19/47/8 20/48/8 24/49/8 23/50/8
f 23/50/9 24/49/9 22/51/9 21/52/9
f 21/53/10 22/54/10 18/55/10 17/56/10
f 24/57/11 20/45/11 18/58/11 22/59/11
f 25/60/7 26/61/7 28/62/7 27/63/7
f 27/64/8 28/65/8 32/66/8 31/67/8
f 31/68/9 32/69/9 30/70/9 29/71/9
f 29/72/10 30/70/10 26/73/10 25/74/10
f 32/75/11 28/76/11 26/77/11 30/78/11
f 33/79/9 34/80/9 47/81/9 45/82/9
f 34/83/10 36/84/10 48/85/10 47/86/10
f 36/87/7 35/88/7 46/89/7 48/90/7
f 35/91/8 33/79/8 45/82/8 46/92/8
f 34/93/11 33/94/11 35/95/11 36/96/11
f 37/97/7 38/98/7 40/99/7 39/100/7
f 39/101/8 40/102/8 44/103/8 43/104/8
f 43/105/9 44/106/9 42/107/9 41/108/9
f 41/109/10 42/110/10 38/111/10 37/112/10
f 39/113/12 43/114/12 41/115/12 37/116/12
f 40/117/11 38/118/11 45/119/11 47/120/11
f 40/117/11 47/120/11 48/121/11 44/122/11
f 49/123/7 50/124/7 52/125/7 51/126/7
f 51/127/8 52/128/8 56/129/8 55/130/8
f 55/131/9 56/129/9 54/132/9 53/133/9
f 53/134/10 54/135/10 50/136/10 49/137/10
f 56/138/11 52/139/11 50/140/11 54/132/11
f 42/141/11 46/142/11 45/119/11 38/118/11
f 42/141/11 44/122/11 48/121/11 46/142/11
o Frame
v 0.9375 0.125 1.0 
v 0.9375 0.75 1.0 
v 0.9375 0.125 0.9375 
v 0.9375 0.75 0.9375 
v 1.0 0.125 1.0 
v 1.0 0.75 1.0 
v 1.0 0.125 0.9375 
v 1.0 0.75 0.9375 
v 0.0 0.125 0.0625 
v 0.0 0.75 0.0625 
v 0.0 0.125 0.0 
v 0.0 0.75 0.0 
v 0.0625 0.125 0.0625 
v 0.0625 0.75 0.0625 
v 0.0625 0.125 0.0 
v 0.0625 0.75 0.0 
v 0.0625 0.75 0.9375 
v 0.0625 0.125 0.9375 
v 0.0625 0.75 1.0 
v 0.0625 0.125 1.0 
v 0.0 0.75 0.9375 
v 0.0 0.125 0.9375 
v 0.0 0.75 1.0 
v 0.0 0.125 1.0 
v 1.0 0.75 0.0 
v 1.0 0.125 0.0 
v 1.0 0.75 0.0625 
v 1.0 0.125 0.0625 
v 0.9375 0.75 0.0 
v 0.9375 0.125 0.0 
v 0.9375 0.75 0.0625 
v 0.9375 0.125 0.0625 
vt 0.2500 0.7500
vt 0.4062 0.7500
vt 0.4062 0.7812
vt 0.2500 0.7812
vt 0.2500 0.7188
vt 0.4062 0.7188
vt 0.4062 0.8125
vt 0.2500 0.8125
vt 0.2500 0.7812
vt 0.4062 0.7812
vt 0.2500 0.6875
vt 0.4062 0.6875
vt 0.2500 0.6875
vt 0.4062 0.6875
vt 0.4062 0.7188
vt 0.2500 0.7188
vt 0.4062 0.8125
vt 0.2500 0.8125
vt 0.2500 0.7812
vt 0.4062 0.7812
vt 0.4062 0.7500
vt 0.2500 0.7500
vt 0.4062 0.7812
vt 0.2500 0.7812
vt 0.2500 0.7188
vt 0.4062 0.7188
vt 0.4062 0.7500
vt 0.2500 0.7500
vt 0.4062 0.8125
vt 0.2500 0.8125
vt 0.2500 0.7812
vt 0.4062 0.7812
vt 0.4062 0.7812
vt 0.2500 0.7812
vt 0.2500 0.6875
vt 0.4062 0.6875
vt 0.2500 0.7188
vt 0.4062 0.7188
vt 0.4062 0.7500
vt 0.2500 0.7500
vt 0.4062 0.8125
vt 0.2500 0.8125
vt 0.2500 0.7812
vt 0.4062 0.7812
vt 0.4062 0.7812
vt 0.2500 0.7812
vt 0.2500 0.6875
vt 0.4062 0.6875
vn 1.0000 0.0000 0.0000
vn 0.0000 0.0000 -1.0000
vn 0.0000 0.0000 1.0000
vn -1.0000 0.0000 0.0000
f 63/143/13 64/144/13 62/145/13 61/146/13
f 59/147/14 60/148/14 64/144/14 63/143/14
f 61/149/15 62/150/15 58/151/15 57/152/15
f 57/153/16 58/154/16 60/148/16 59/147/16
f 65/155/16 66/156/16 68/157/16 67/158/16
f 69/159/15 70/160/15 66/161/15 65/162/15
f 67/158/14 68/157/14 72/163/14 71/164/14
f 71/164/13 72/163/13 70/165/13 69/166/13
f 78/167/14 77/168/14 73/169/14 74/170/14
f 76/171/15 75/172/15 79/173/15 80/174/15
f 74/170/13 73/169/13 75/175/13 76/176/13
f 80/177/16 79/178/16 77/168/16 78/167/16
f 86/179/14 85/180/14 81/181/14 82/182/14
f 84/183/15 83/184/15 87/185/15 88/186/15
f 82/182/13 81/181/13 83/187/13 84/188/13
f 88/189/16 87/190/16 85/180/16 86/179/16
